<?xml version="1.0" standalone="no"?>
<!DOCTYPE svg PUBLIC "-//W3C//DTD SVG 20010904//EN"
 "http://www.w3.org/TR/2001/REC-SVG-20010904/DTD/svg10.dtd">
<svg version="1.0" xmlns="http://www.w3.org/2000/svg"
 width="512.000000pt" height="512.000000pt" viewBox="0 0 512.000000 512.000000"
 preserveAspectRatio="xMidYMid meet">

<g transform="translate(0.000000,512.000000) scale(0.100000,-0.100000)"
fill="#000000" stroke="none">
<path d="M3873 5096 l-28 -24 0 -290 0 -290 23 -25 24 -25 -194 -516 -193
-516 -5 242 c-6 279 -10 295 -90 336 -43 21 -53 22 -335 22 -282 0 -292 -1
-335 -22 -30 -15 -53 -37 -67 -63 -22 -38 -23 -50 -23 -290 0 -211 2 -254 16
-273 14 -21 12 -27 -43 -124 l-58 -103 -5 286 c-5 264 -7 289 -24 308 -18 20
-29 21 -215 21 -195 0 -196 0 -256 -28 -68 -33 -127 -92 -159 -161 -20 -44
-21 -62 -24 -438 l-3 -393 -424 0 -424 0 -3 398 -3 397 -28 57 c-16 32 -48 75
-73 97 -78 68 -104 73 -421 69 l-278 -3 -53 -29 c-65 -36 -107 -82 -141 -156
l-26 -55 0 -1665 0 -1665 22 -41 c29 -55 93 -109 146 -123 31 -9 483 -11 1747
-9 1556 3 1708 4 1735 19 27 15 32 15 70 0 35 -14 100 -16 540 -16 499 0 500
0 557 23 81 33 167 99 210 163 86 124 99 250 48 442 -56 211 -64 283 -64 522
1 195 4 236 28 365 76 412 84 569 69 1300 l-9 405 -228 608 -229 608 24 25 24
26 0 290 0 290 -28 24 -28 24 -369 0 -369 0 -28 -24z m657 -316 l0 -170 -260
0 -260 0 0 170 0 170 260 0 260 0 0 -170z m158 -933 c122 -327 222 -597 222
-600 0 -10 -1280 -9 -1280 1 0 4 100 274 222 600 l222 592 195 0 196 0 223
-593z m-1358 -177 l0 -170 -255 0 -255 0 0 170 0 170 255 0 255 0 0 -170z
m-2810 -544 l0 -453 23 -34 c12 -19 42 -44 67 -56 l44 -23 632 0 631 0 43 23
c30 16 51 37 67 67 23 43 23 46 23 429 0 430 0 432 69 478 31 21 46 23 152 23
l119 0 0 -595 0 -595 -524 0 c-506 0 -524 -1 -548 -20 -21 -16 -32 -46 -63
-169 l-37 -149 -33 -6 c-66 -13 -70 -26 -73 -241 -4 -220 3 -251 59 -262 17
-3 32 -11 35 -17 2 -6 35 -299 74 -651 38 -352 72 -655 75 -672 l6 -33 -571 0
-571 0 -25 25 -24 24 2 1628 c3 1515 4 1630 20 1659 33 61 68 74 206 74 l122
0 0 -454z m281 431 c56 -37 58 -54 58 -459 l1 -368 -85 0 -85 0 0 425 0 425
39 0 c23 0 51 -9 72 -23z m2640 -517 c184 -330 220 -420 222 -560 l2 -85 -552
-3 -553 -2 0 191 0 190 131 237 c73 130 143 256 156 280 l25 42 205 -2 205 -3
159 -285z m1509 -440 l0 -470 -552 2 -553 3 -6 65 c-3 36 -10 74 -16 84 -8 14
-7 28 4 55 12 28 14 60 10 141 -8 163 -57 308 -177 518 l-41 72 666 0 665 0 0
-470z m-2433 -465 l20 -85 -572 0 -572 0 20 85 21 85 531 0 531 0 21 -85z
m1151 -87 l2 -168 -425 0 -425 0 0 56 c0 48 -4 59 -29 85 -16 16 -40 29 -53
29 -22 0 -26 8 -45 85 l-20 85 496 -2 496 -3 3 -167z m1272 -95 c0 -22 -43
-286 -66 -413 -25 -131 -27 -168 -28 -385 -1 -260 13 -369 70 -570 30 -104 30
-196 0 -257 -25 -52 -82 -107 -135 -132 -44 -20 -62 -21 -505 -24 l-459 -3 9
23 c4 13 9 134 11 270 3 207 2 252 -11 277 -14 26 -14 33 -1 58 22 41 22 411
0 453 -14 27 -14 33 0 60 22 42 22 412 0 453 -13 25 -13 32 0 57 8 16 15 54
15 85 l0 55 550 0 c303 0 550 -3 550 -7z m-2290 -158 l0 -85 -685 0 -685 0 0
85 0 85 685 0 685 0 0 -85z m1018 -257 l2 -168 -481 0 -481 0 7 78 c4 42 9 80
11 83 2 4 17 9 33 12 39 8 61 50 61 117 l0 50 423 -2 422 -3 3 -167z m-1118
-15 c0 -23 -138 -1277 -145 -1320 l-6 -33 -434 0 c-239 0 -435 1 -435 3 0 2
-34 307 -75 677 -41 370 -75 677 -75 682 0 4 263 8 585 8 550 0 585 -1 585
-17z m1118 -500 l-3 -168 -507 -3 c-280 -1 -508 1 -508 5 0 19 32 309 36 321
3 9 110 12 494 12 l490 0 -2 -167z m2 -548 c0 -229 -5 -250 -63 -285 -31 -19
-54 -20 -528 -20 -273 0 -498 2 -500 5 -3 2 7 114 22 247 16 134 28 246 28
251 1 4 235 7 521 7 l520 0 0 -205z"/>
<path d="M4324 4090 c-28 -11 -54 -48 -54 -76 0 -30 77 -216 99 -237 39 -40
123 -14 136 42 7 34 -63 227 -93 254 -23 21 -62 28 -88 17z"/>
<path d="M4469 3641 c-36 -36 -36 -53 -2 -137 21 -54 32 -69 59 -80 38 -16 88
-3 104 26 37 69 -36 220 -106 220 -15 0 -38 -12 -55 -29z"/>
<path d="M373 1766 l-28 -24 -3 -218 c-2 -120 -1 -233 3 -251 13 -72 97 -99
146 -47 l24 26 0 245 0 245 -28 24 c-36 31 -78 31 -114 0z"/>
<path d="M369 994 c-21 -22 -24 -35 -24 -101 0 -70 2 -76 28 -99 36 -31 78
-31 114 0 26 23 28 29 28 99 0 66 -3 79 -24 101 -34 36 -88 36 -122 0z"/>
<path d="M4670 1703 c-34 -13 -52 -41 -79 -127 -94 -293 -92 -561 5 -859 15
-43 35 -87 47 -98 47 -44 137 -6 137 59 0 16 -11 61 -24 100 -45 130 -60 227
-60 377 0 151 14 244 59 375 14 40 25 84 25 96 0 46 -67 93 -110 77z"/>
<path d="M1873 1266 c-172 -56 -268 -209 -241 -382 12 -77 48 -143 108 -197
95 -85 226 -110 347 -66 78 29 170 121 198 199 59 162 -16 348 -171 424 -68
34 -176 44 -241 22z m163 -175 c106 -48 132 -176 53 -266 -36 -41 -86 -59
-146 -52 -86 9 -143 76 -143 167 0 71 27 116 90 148 54 27 92 28 146 3z"/>
</g>
</svg>
